HIERARCHY
ROOT SpineBase
{
  OFFSET 0.000000 0.000000 0.000000
  CHANNELS 6 Xposition Yposition Zposition Zrotation Xrotation Yrotation
  JOINT SpineMid
  {
    OFFSET 0.000000 31.672962 0.000000
    CHANNELS 3 Zrotation Xrotation Yrotation
    JOINT SpineShoulder
    {
      OFFSET 0.500646 23.361010 -1.226309
      CHANNELS 3 Zrotation Xrotation Yrotation
      JOINT Neck
      {
        OFFSET 0.246846 7.758823 -0.909386
        CHANNELS 3 Zrotation Xrotation Yrotation
        JOINT Head
        {
          OFFSET 2.629608 14.117316 -0.985288
          CHANNELS 3 Zrotation Xrotation Yrotation
          End Site
          {
            OFFSET 0 0 0
          }
        }
      }
      JOINT ShoulderLeft
      {
        OFFSET -16.815766 -2.699937 -5.268348
        CHANNELS 3 Zrotation Xrotation Yrotation
        JOINT ElbowLeft
        {
          OFFSET -6.589825 -25.700561 -2.498283
          CHANNELS 3 Zrotation Xrotation Yrotation
          JOINT WristLeft
          {
            OFFSET -0.389286 -24.126066 -7.257818
            CHANNELS 3 Zrotation Xrotation Yrotation
            JOINT HandLeft
            {
              OFFSET 0.000559 -6.394079 0.338922
              CHANNELS 3 Zrotation Xrotation Yrotation
              JOINT HandTipLeft
              {
                OFFSET 0.016208 -6.208176 -1.795844
                CHANNELS 3 Zrotation Xrotation Yrotation
                End Site
                {
                  OFFSET 0 0 0
                }
              }
              JOINT ThumbLeft
              {
                OFFSET -2.745578 3.118882 -2.679438
                CHANNELS 3 Zrotation Xrotation Yrotation
                End Site
                {
                  OFFSET 0 0 0
                }
              }
            }
          }
        }
      }
      JOINT ShoulderRight
      {
        OFFSET 17.098769 -4.762746 3.934455
        CHANNELS 3 Zrotation Xrotation Yrotation
        JOINT ElbowRight
        {
          OFFSET 4.884776 -29.994901 1.150833
          CHANNELS 3 Zrotation Xrotation Yrotation
          JOINT WristRight
          {
            OFFSET 4.192388 -24.282111 -4.780198
            CHANNELS 3 Zrotation Xrotation Yrotation
            JOINT HandRight
            {
              OFFSET -2.484955 -3.868490 0.918305
              CHANNELS 3 Zrotation Xrotation Yrotation
              JOINT HandTipRight
              {
                OFFSET 0.043923 -3.946586 -0.940853
                CHANNELS 3 Zrotation Xrotation Yrotation
                End Site
                {
                  OFFSET 0 0 0
                }
              }
              JOINT ThumbRight
              {
                OFFSET -1.706396 1.422002 -2.701464
                CHANNELS 3 Zrotation Xrotation Yrotation
                End Site
                {
                  OFFSET 0 0 0
                }
              }
            }
          }
        }
      }
    }
  }
  JOINT HipLeft
  {
    OFFSET -6.815041 1.050651 -5.602596
    CHANNELS 3 Zrotation Xrotation Yrotation
    JOINT KneeLeft
    {
      OFFSET -3.276191 -34.358873 3.506698
      CHANNELS 3 Zrotation Xrotation Yrotation
      JOINT AnkleLeft
      {
        OFFSET -0.838262 -33.187778 6.830681
        CHANNELS 3 Zrotation Xrotation Yrotation
        JOINT FootLeft
        {
          OFFSET 2.795418 -3.412958 -11.754862
          CHANNELS 3 Zrotation Xrotation Yrotation
          End Site
          {
            OFFSET 0 0 0
          }
        }
      }
    }
  }
  JOINT HipRight
  {
    OFFSET 8.378755 -0.143875 -1.740305
    CHANNELS 3 Zrotation Xrotation Yrotation
    JOINT KneeRight
    {
      OFFSET 4.120895 -37.095529 -4.019144
      CHANNELS 3 Zrotation Xrotation Yrotation
      JOINT AnkleRight
      {
        OFFSET 3.549931 -31.743232 3.938739
        CHANNELS 3 Zrotation Xrotation Yrotation
        JOINT FootRight
        {
          OFFSET 2.572852 -3.363828 -11.785451
          CHANNELS 3 Zrotation Xrotation Yrotation
          End Site
          {
            OFFSET 0 0 0
          }
        }
      }
    }
  }
}
MOTION
Frames: 13
Frame Time: 0.033333
-80.584252 76.336174 381.773350 -2.011717 1.022197 -5.397641 0.431549 1.244947 5.312262 -0.045036 1.298063 -0.148631 6.719022 -6.211933 1.654817 0.000000 0.000000 0.000000 1.525372 -3.511458 0.336239 -2.492875 0.685460 0.752273 -9.040113 5.063298 -0.899860 10.575187 -11.158280 1.355048 0.000000 0.000000 0.000000 0.000000 0.000000 0.000000 2.082634 4.124167 1.603284 -8.383438 4.864145 2.158181 12.514152 11.849821 -19.136951 -5.073279 -21.332584 15.344393 0.000000 0.000000 0.000000 0.000000 0.000000 0.000000 2.846877 -2.527768 5.680028 -2.080138 -0.407771 -0.452563 -1.063998 -0.893406 7.350894 0.000000 0.000000 0.000000 1.733832 1.727241 5.732584 0.754242 -8.005258 -0.757444 -2.543050 6.617543 7.797057 0.000000 0.000000 0.000000
-80.314660 76.387183 381.246279 -2.634898 1.075955 -3.146344 0.374904 1.212789 3.034817 -0.093539 1.292760 -0.194173 9.660209 -6.828519 2.269778 0.000000 0.000000 0.000000 2.308400 -3.543949 0.453451 -3.493283 0.938617 1.061515 -8.324136 3.217942 -1.405520 9.716130 -9.620761 1.432519 0.000000 0.000000 0.000000 0.000000 0.000000 0.000000 2.293724 5.364765 1.913719 -10.077317 3.480559 2.135348 13.877320 9.854610 -17.845276 -7.042828 -18.981024 13.932389 0.000000 0.000000 0.000000 0.000000 0.000000 0.000000 3.638090 -2.575441 3.470664 -2.675621 -0.589685 -0.533672 -1.453204 -1.719626 9.651790 0.000000 0.000000 0.000000 2.299695 0.669527 3.404055 0.889051 -6.948038 -0.680687 -3.057383 6.635730 9.877505 0.000000 0.000000 0.000000
-80.078985 76.456158 380.754625 -3.309159 1.085533 -0.660602 0.296068 1.173239 0.519758 -0.128501 1.283822 -0.241524 12.841003 -7.429863 2.954382 0.000000 0.000000 0.000000 3.152960 -4.649755 0.869654 -4.293211 2.307077 1.111801 -7.015263 1.765539 -1.782392 9.085942 -8.622281 1.325412 0.000000 0.000000 0.000000 0.000000 0.000000 0.000000 2.342482 6.599494 2.231000 -11.792653 1.407162 1.887228 14.880408 9.949111 -17.736160 -7.760323 -21.318954 13.598066 0.000000 0.000000 0.000000 0.000000 0.000000 0.000000 4.488648 -2.533402 1.018971 -3.269648 -0.874845 -0.607652 -1.859463 -1.976797 12.422431 0.000000 0.000000 0.000000 3.322008 -1.045513 0.722278 0.481623 -5.179239 -0.495045 -3.625763 6.554245 12.376391 0.000000 0.000000 0.000000
-79.932385 76.547767 380.373540 -4.012533 1.045108 1.985086 0.243985 1.138432 -2.155868 -0.141137 1.282085 -0.285678 15.999574 -8.135875 3.697118 0.000000 0.000000 0.000000 4.501020 -5.044780 1.099159 -5.213475 2.898606 1.223153 -3.297250 0.894870 -1.801251 5.328508 -7.894435 1.131523 0.000000 0.000000 0.000000 0.000000 0.000000 0.000000 2.200750 7.486234 2.491291 -13.289053 -0.269373 1.694417 14.928812 9.526657 -17.395850 -7.704796 -24.089268 13.136492 0.000000 0.000000 0.000000 0.000000 0.000000 0.000000 5.466216 -2.369961 -1.596492 -3.907280 -1.297135 -0.677103 -2.257075 -1.648990 15.316386 0.000000 0.000000 0.000000 3.974767 -1.180824 -1.907498 0.130115 -5.081273 -0.543641 -4.029939 6.449783 15.069501 0.000000 0.000000 0.000000
-79.846363 76.645323 380.103499 -4.679775 0.898649 4.690212 0.271347 1.131749 -4.888147 -0.163113 1.263412 -0.324031 18.490559 -8.728180 4.313490 0.000000 0.000000 0.000000 5.880302 -5.338264 1.303046 -5.743762 3.262154 1.173848 0.873747 0.010453 -1.553079 0.808445 -9.433688 0.812263 0.000000 0.000000 0.000000 0.000000 0.000000 0.000000 2.373172 7.984894 2.654355 -15.504328 -0.818421 1.812654 16.187039 7.653524 -16.490719 -8.161756 -25.661487 11.981980 0.000000 0.000000 0.000000 0.000000 0.000000 0.000000 6.434577 -2.040855 -4.296346 -4.575659 -1.860331 -0.755461 -2.523521 -0.705376 18.037394 0.000000 0.000000 0.000000 4.637736 -2.982988 -4.809511 -0.456319 -3.366079 -0.391210 -4.363782 6.348581 17.747135 0.000000 0.000000 0.000000
-79.795301 76.753267 379.903891 -5.180672 0.780794 7.842831 0.343530 1.085823 -8.061477 -0.170456 1.228643 -0.349758 21.022933 -9.459348 5.008899 0.000000 0.000000 0.000000 7.501373 -5.953257 1.560112 -6.432439 4.027476 1.022131 6.484146 -1.054793 -1.034908 -4.039964 -6.111700 0.269324 0.000000 0.000000 0.000000 0.000000 0.000000 0.000000 2.352419 8.813859 2.849077 -17.228915 -2.164968 1.507983 18.310903 4.651634 -14.172886 -11.797614 -25.885690 9.234225 0.000000 0.000000 0.000000 0.000000 0.000000 0.000000 7.191768 -1.745395 -7.461164 -5.093106 -2.467695 -0.816543 -2.811791 0.720886 20.553835 0.000000 0.000000 0.000000 5.302541 -4.160185 -8.089859 -1.237615 -2.494988 -0.269418 -4.788154 6.222307 20.470367 0.000000 0.000000 0.000000
-79.668892 76.722141 379.809813 -5.378728 0.642382 11.288499 0.185146 1.069783 -11.530222 -0.208785 1.184609 -0.375601 24.635159 -10.091752 5.913864 0.000000 0.000000 0.000000 9.225237 -6.584824 1.829956 -7.001948 4.728081 0.785148 12.649231 -3.516458 -0.179799 -11.276571 -4.084339 0.287945 0.000000 0.000000 0.000000 0.000000 0.000000 0.000000 2.281606 9.940566 3.097040 -18.498779 -3.904721 0.907229 20.858405 1.558350 -11.463161 -16.063926 -24.237615 6.548585 0.000000 0.000000 0.000000 0.000000 0.000000 0.000000 7.438458 -1.279242 -10.981824 -5.304102 -3.221348 -0.848236 -2.970887 2.655258 22.425642 0.000000 0.000000 0.000000 5.519065 -5.231914 -11.654841 -1.963885 -1.849925 -0.161349 -5.134657 6.130214 22.865488 0.000000 0.000000 0.000000
-79.449447 76.550448 379.759207 -5.323692 0.527991 14.926777 -0.059397 1.085383 -15.185933 -0.064899 1.157118 -0.370441 27.361105 -10.733190 6.696358 0.000000 0.000000 0.000000 10.483238 -7.121524 2.026151 -7.257241 5.256361 0.476872 21.733089 -1.997074 0.686701 -21.186391 -4.402606 -0.242978 0.000000 0.000000 0.000000 0.000000 0.000000 0.000000 1.948004 11.093654 3.315935 -19.539893 -6.212210 -0.030180 23.899491 0.221905 -9.344910 -20.256847 -22.862234 4.594256 0.000000 0.000000 0.000000 0.000000 0.000000 0.000000 7.299075 -0.700020 -14.737637 -5.292191 -4.067636 -0.861467 -3.124987 5.011867 24.183761 0.000000 0.000000 0.000000 5.316579 -6.282795 -15.418596 -2.613426 -1.316202 -0.056258 -5.565049 6.037414 25.480429 0.000000 0.000000 0.000000
-79.142473 76.240155 379.733288 -5.020322 0.453686 18.600272 -0.040920 1.140174 -18.852161 0.229208 1.178069 -0.321236 31.223721 -11.118373 7.723487 0.000000 0.000000 0.000000 10.905841 -7.711189 2.129641 -7.121047 5.634945 0.081222 18.747640 0.834211 0.377353 -17.195885 -3.429580 -1.086578 0.000000 0.000000 0.000000 0.000000 0.000000 0.000000 2.092629 11.860458 3.359345 -21.808596 -8.051787 -1.017240 28.569272 1.189294 -8.683919 -24.952356 -23.340889 3.344381 0.000000 0.000000 0.000000 0.000000 0.000000 0.000000 6.763649 0.108828 -18.582476 -4.960408 -5.111291 -0.834487 -3.774877 2.502553 27.154660 0.000000 0.000000 0.000000 4.712969 -7.182155 -19.220123 -3.263501 -0.853007 0.033057 -5.852605 5.845410 27.866750 0.000000 0.000000 0.000000
-78.756344 75.852542 379.677436 -4.440900 0.473891 21.911462 0.288730 1.122482 -22.127918 0.575381 1.232699 -0.234700 34.840999 -10.738584 8.473746 0.000000 0.000000 0.000000 10.336782 -8.309188 2.124275 -6.112942 5.675024 -0.548103 12.937896 0.275403 0.657577 -11.405681 1.716716 -1.154317 0.000000 0.000000 0.000000 0.000000 0.000000 0.000000 0.782906 12.427398 3.345776 -21.688569 -9.682430 -1.807086 29.020154 -0.045848 -6.980313 -25.961596 -20.354186 2.634760 0.000000 0.000000 0.000000 0.000000 0.000000 0.000000 5.774782 1.064310 -22.096497 -4.258500 -6.156021 -0.746661 -4.143132 2.215367 29.090566 0.000000 0.000000 0.000000 3.779532 -7.814507 -22.649047 -3.697965 -0.634953 0.099384 -6.179730 5.705300 29.880444 0.000000 0.000000 0.000000
-78.369096 75.378042 379.598262 -3.753679 0.484659 24.478552 0.594698 1.064922 -24.656259 0.759952 1.282883 -0.162355 38.645529 -9.572767 8.853568 0.000000 0.000000 0.000000 9.799929 -8.926246 2.142272 -6.691290 6.156929 -0.557473 5.272266 3.567227 0.115866 -0.704223 4.751807 -1.754680 0.000000 0.000000 0.000000 0.000000 0.000000 0.000000 -1.270634 13.215262 3.421083 -19.777100 -11.830645 -2.632150 29.402535 -2.856027 -3.507595 -26.769122 -15.101265 1.219769 0.000000 0.000000 0.000000 0.000000 0.000000 0.000000 4.664002 2.139551 -24.866165 -3.367604 -7.050307 -0.612126 -4.587334 1.885972 30.968677 0.000000 0.000000 0.000000 2.909499 -8.114925 -25.314464 -4.123224 -0.676605 0.138049 -6.517305 5.577665 31.863842 0.000000 0.000000 0.000000
-77.996251 74.866441 379.510970 -2.683183 0.755241 26.382938 1.319115 0.951260 -26.485601 0.910564 1.353273 -0.054251 40.687083 -8.595478 9.024530 0.000000 0.000000 0.000000 8.176414 -9.957558 2.111591 -6.945693 6.599227 -0.604242 0.737104 -0.853781 0.044471 4.909400 12.142096 -2.213631 0.000000 0.000000 0.000000 0.000000 0.000000 0.000000 -1.759905 12.855922 3.103976 -21.168129 -12.257122 -3.097739 30.439183 -4.080756 -2.047684 -27.914514 -11.958526 0.832118 0.000000 0.000000 0.000000 0.000000 0.000000 0.000000 2.933281 3.152364 -26.957367 -2.217681 -7.749714 -0.420943 -5.014652 1.620126 32.412652 0.000000 0.000000 0.000000 1.479219 -8.189630 -27.292544 -4.151192 -0.755934 0.141267 -6.876668 5.415910 33.397650 0.000000 0.000000 0.000000
-77.449884 74.374287 379.405972 -1.236349 1.217284 27.725575 2.106031 0.767923 -27.740083 0.977133 1.448781 0.065289 41.244553 -7.707108 8.945242 0.000000 0.000000 0.000000 6.080171 -11.242811 2.051738 -6.190482 7.618132 -1.071951 -4.042059 -4.916778 -0.037902 10.321984 21.025204 -3.413620 0.000000 0.000000 0.000000 0.000000 0.000000 0.000000 -3.934630 12.164545 2.753827 -19.813716 -12.734746 -3.201428 29.352346 -5.792594 -0.177799 -26.991149 -9.355562 0.078652 0.000000 0.000000 0.000000 0.000000 0.000000 0.000000 0.251799 4.308610 -28.499597 -0.458851 -8.174997 -0.126834 -5.482235 1.333861 33.665659 0.000000 0.000000 0.000000 -0.814689 -7.741094 -28.665881 -3.208613 -0.909082 0.047571 -7.489647 5.199133 34.723283 0.000000 0.000000 0.000000
